# This file uses centimeters as units for non-parametric coordinates.

mtllib 1.mtl
g default
v 7.063317 0.000000 -4.294933
v 2.768384 0.000000 -6.073952
v -1.526550 0.000000 -4.294933
v -3.305569 0.000000 -0.000000
v -1.526550 0.000000 4.294933
v 2.768384 0.000000 6.073952
v 7.063317 0.000000 4.294934
v 8.842334 0.000000 -0.000000
v 3.108360 2.430774 -2.378021
v 0.746370 2.211236 -3.363029
v -1.615620 1.991696 -2.378021
v -2.593987 1.900760 0.000000
v -1.615620 1.991696 2.378021
v 0.746370 2.211236 3.363029
v 3.108360 2.430773 2.378020
v 4.086730 2.521710 0.000000
v -0.000000 0.000000 -0.000000
v -0.428457 9.258475 -1.416758
v -1.778275 9.725109 -2.003598
v -3.128092 10.191744 -1.416758
v -3.687204 10.385031 -0.000000
v -3.128092 10.191744 1.416757
v -1.778275 9.725109 2.003598
v -0.428456 9.258475 1.416757
v 0.130656 9.065188 -0.000000
v -0.223246 17.520828 -0.974742
v -1.077565 17.990147 -1.378495
v -1.931885 18.459469 -0.974742
v -2.285757 18.653868 0.000001
v -1.931885 18.459469 0.974743
v -1.077565 17.990147 1.378498
v -0.223246 17.520828 0.974743
v 0.130626 17.326429 0.000001
v 5.181639 30.530993 -0.237059
v 4.945741 30.554442 -0.335254
v 4.945743 30.554442 0.000001
v 4.709846 30.577892 -0.237059
v 4.612135 30.587605 0.000004
v 4.709846 30.577892 0.237063
v 4.945743 30.554442 0.335254
v 5.181639 30.530993 0.237059
v 5.279350 30.521278 0.000000
v -0.189187 24.783236 0.000004
v -0.000820 24.621815 -0.598896
v 0.453940 24.232107 -0.846969
v 0.908698 23.842402 -0.598896
v 1.097066 23.680981 0.000000
v 0.908698 23.842402 0.598896
v 0.453940 24.232107 0.846969
v -0.000820 24.621815 0.598900
vt 0.610485 0.045765
vt 0.500000 0.000000
vt 0.389515 0.045765
vt 0.343750 0.156250
vt 0.389515 0.266735
vt 0.500000 0.312500
vt 0.610485 0.266735
vt 0.656250 0.156250
vt 0.375000 0.312500
vt 0.406250 0.312500
vt 0.437500 0.312500
vt 0.468750 0.312500
vt 0.500000 0.312500
vt 0.531250 0.312500
vt 0.562500 0.312500
vt 0.593750 0.312500
vt 0.625000 0.312500
vt 0.375000 0.688440
vt 0.406250 0.688440
vt 0.437500 0.688440
vt 0.468750 0.688440
vt 0.500000 0.688440
vt 0.531250 0.688440
vt 0.562500 0.688440
vt 0.593750 0.688440
vt 0.625000 0.688440
vt 0.610485 0.733265
vt 0.500000 0.687500
vt 0.389515 0.733265
vt 0.343750 0.843750
vt 0.389515 0.954235
vt 0.500000 1.000000
vt 0.610485 0.954235
vt 0.656250 0.843750
vt 0.500000 0.150000
vt 0.500000 0.837500
vt 0.610485 0.954235
vt 0.500000 1.000000
vt 0.389515 0.954235
vt 0.343750 0.843750
vt 0.389515 0.733265
vt 0.500000 0.687500
vt 0.610485 0.733265
vt 0.656250 0.843750
vt 0.610485 0.954235
vt 0.500000 1.000000
vt 0.389515 0.954235
vt 0.343750 0.843750
vt 0.389515 0.733265
vt 0.500000 0.687500
vt 0.610485 0.733265
vt 0.656250 0.843750
vt 0.610485 0.954235
vt 0.500000 1.000000
vt 0.389515 0.954235
vt 0.343750 0.843750
vt 0.389515 0.733265
vt 0.500000 0.687500
vt 0.610485 0.733265
vt 0.656250 0.843750
vt 0.343750 0.843750
vt 0.389515 0.954235
vt 0.500000 1.000000
vt 0.610485 0.954235
vt 0.656250 0.843750
vt 0.610485 0.733265
vt 0.500000 0.687500
vt 0.389515 0.733265
vn 0.202109 0.809616 -0.551067
vn 0.202109 0.809616 -0.551067
vn 0.321007 0.558436 -0.764921
vn 0.285779 0.649994 -0.704158
vn -0.316603 0.625839 -0.712803
vn -0.316603 0.625839 -0.712803
vn -0.381015 0.245053 -0.891502
vn -0.368366 0.369445 -0.853122
vn -0.878062 0.316982 -0.358511
vn -0.878062 0.316982 -0.358511
vn -0.927120 0.019622 -0.374250
vn -0.925611 0.057053 -0.374151
vn -0.878062 0.316982 0.358511
vn -0.878062 0.316982 0.358511
vn -0.925611 0.057053 0.374151
vn -0.927120 0.019622 0.374250
vn -0.316603 0.625839 0.712803
vn -0.316603 0.625839 0.712803
vn -0.368366 0.369445 0.853122
vn -0.381015 0.245053 0.891502
vn 0.202109 0.809616 0.551067
vn 0.202109 0.809616 0.551067
vn 0.285779 0.649994 0.704158
vn 0.321007 0.558436 0.764920
vn 0.451111 0.870167 0.198265
vn 0.451111 0.870167 0.198265
vn 0.615156 0.746412 0.253875
vn 0.641599 0.720680 0.262622
vn 0.451111 0.870167 -0.198265
vn 0.451111 0.870167 -0.198265
vn 0.641599 0.720680 -0.262623
vn 0.615156 0.746412 -0.253875
vn 0.000000 -1.000000 0.000000
vn 0.000000 -1.000000 0.000000
vn 0.000000 -1.000000 0.000000
vn 0.000000 -1.000000 -0.000000
vn 0.000000 -1.000000 0.000000
vn 0.000000 -1.000000 0.000000
vn 0.000000 -1.000000 0.000000
vn 0.000000 -1.000000 0.000000
vn 0.000000 -1.000000 0.000000
vn 0.098918 0.995096 0.000000
vn 0.098920 0.995095 0.000001
vn 0.098920 0.995095 0.000000
vn 0.098922 0.995095 0.000001
vn 0.098920 0.995095 0.000000
vn 0.098922 0.995095 0.000000
vn 0.098920 0.995095 0.000000
vn 0.098918 0.995096 0.000000
vn 0.098920 0.995095 0.000000
vn 0.410413 0.161686 -0.897451
vn 0.401298 0.229061 -0.886844
vn -0.379264 0.071171 -0.922547
vn -0.383247 0.054903 -0.922013
vn -0.926952 -0.005770 -0.375136
vn -0.926708 -0.032435 -0.374379
vn -0.926708 -0.032435 0.374379
vn -0.926952 -0.005770 0.375136
vn -0.383247 0.054903 0.922013
vn -0.379264 0.071171 0.922547
vn 0.401298 0.229061 0.886843
vn 0.410413 0.161686 0.897451
vn 0.882631 0.323316 0.341218
vn 0.896842 0.275520 0.346068
vn 0.896842 0.275520 -0.346068
vn 0.882631 0.323316 -0.341218
vn 0.426367 0.009156 -0.904504
vn 0.424636 0.020066 -0.905142
vn -0.362754 0.128941 -0.922921
vn -0.366362 0.117847 -0.922980
vn -0.904024 0.207409 -0.373794
vn -0.906290 0.197007 -0.373934
vn -0.906290 0.197007 0.373934
vn -0.904024 0.207409 0.373794
vn -0.366362 0.117846 0.922980
vn -0.362754 0.128941 0.922921
vn 0.424636 0.020066 0.905142
vn 0.426367 0.009156 0.904504
vn 0.933477 -0.043655 0.355972
vn 0.933073 -0.053813 0.355640
vn 0.933073 -0.053813 -0.355640
vn 0.933476 -0.043655 -0.355972
vn 0.396173 -0.098743 -0.912851
vn 0.408075 -0.075127 -0.909852
vn -0.322580 0.220864 -0.920414
vn -0.331920 0.202674 -0.921278
vn -0.824593 0.424332 -0.374151
vn -0.833863 0.405889 -0.374068
vn -0.833863 0.405888 0.374069
vn -0.824593 0.424332 0.374152
vn -0.331916 0.202672 0.921279
vn -0.322576 0.220862 0.920416
vn 0.408076 -0.075128 0.909852
vn 0.396174 -0.098743 0.912850
vn 0.891392 -0.270321 0.363795
vn 0.883790 -0.292280 0.365360
vn 0.883790 -0.292280 -0.365360
vn 0.891392 -0.270321 -0.363795
vn -0.717775 0.591830 -0.366792
vn -0.717775 0.591830 -0.366792
vn -0.289713 0.282202 -0.914565
vn -0.289713 0.282202 -0.914565
vn 0.354397 -0.177092 -0.918173
vn 0.354397 -0.177092 -0.918173
vn 0.792113 -0.485145 -0.370394
vn 0.792113 -0.485145 -0.370394
vn 0.792113 -0.485145 0.370394
vn 0.792113 -0.485145 0.370394
vn 0.354398 -0.177093 0.918172
vn 0.354398 -0.177093 0.918172
vn -0.289706 0.282197 0.914568
vn -0.289706 0.282197 0.914568
vn -0.717775 0.591830 0.366793
vn -0.717775 0.591830 0.366793
s 1
g pCylinder1
usemtl initialShadingGroup
f 1/9/1 2/10/2 10/19/3 9/18/4
s 2
f 2/10/5 3/11/6 11/20/7 10/19/8
s 3
f 3/11/9 4/12/10 12/21/11 11/20/12
s 4
f 4/12/13 5/13/14 13/22/15 12/21/16
s 5
f 5/13/17 6/14/18 14/23/19 13/22/20
s 6
f 6/14/21 7/15/22 15/24/23 14/23/24
s 7
f 7/15/25 8/16/26 16/25/27 15/24/28
s 8
f 8/16/29 1/17/30 9/26/31 16/25/32
s 9
f 2/2/33 1/1/34 17/35/35
f 3/3/36 2/2/33 17/35/35
f 4/4/37 3/3/36 17/35/35
f 5/5/38 4/4/37 17/35/35
f 6/6/39 5/5/38 17/35/35
f 7/7/40 6/6/39 17/35/35
f 8/8/41 7/7/40 17/35/35
f 1/1/34 8/8/41 17/35/35
s 10
f 34/53/42 35/54/43 36/36/44
f 35/54/43 37/55/45 36/36/44
f 37/55/45 38/56/46 36/36/44
f 38/56/46 39/57/47 36/36/44
f 39/57/47 40/58/48 36/36/44
f 40/58/48 41/59/49 36/36/44
f 41/59/49 42/60/50 36/36/44
f 42/60/50 34/53/42 36/36/44
s 1
f 9/33/4 10/32/3 19/38/51 18/37/52
s 2
f 10/32/8 11/31/7 20/39/53 19/38/54
s 3
f 11/31/12 12/30/11 21/40/55 20/39/56
s 4
f 12/30/16 13/29/15 22/41/57 21/40/58
s 5
f 13/29/20 14/28/19 23/42/59 22/41/60
s 6
f 14/28/24 15/27/23 24/43/61 23/42/62
s 7
f 15/27/28 16/34/27 25/44/63 24/43/64
s 8
f 16/34/32 9/33/31 18/37/65 25/44/66
s 1
f 18/37/52 19/38/51 27/46/67 26/45/68
s 2
f 19/38/54 20/39/53 28/47/69 27/46/70
s 3
f 20/39/56 21/40/55 29/48/71 28/47/72
s 4
f 21/40/58 22/41/57 30/49/73 29/48/74
s 5
f 22/41/60 23/42/59 31/50/75 30/49/76
s 6
f 23/42/62 24/43/61 32/51/77 31/50/78
s 7
f 24/43/64 25/44/63 33/52/79 32/51/80
s 8
f 25/44/66 18/37/65 26/45/81 33/52/82
s 1
f 26/45/68 27/46/67 45/63/83 46/64/84
s 2
f 27/46/70 28/47/69 44/62/85 45/63/86
s 3
f 28/47/72 29/48/71 43/61/87 44/62/88
s 4
f 29/48/74 30/49/73 50/68/89 43/61/90
s 5
f 30/49/76 31/50/75 49/67/91 50/68/92
s 6
f 31/50/78 32/51/77 48/66/93 49/67/94
s 7
f 32/51/80 33/52/79 47/65/95 48/66/96
s 8
f 33/52/82 26/45/81 46/64/97 47/65/98
s 3
f 44/62/88 43/61/87 38/56/99 37/55/100
s 2
f 45/63/86 44/62/85 37/55/101 35/54/102
s 1
f 46/64/84 45/63/83 35/54/103 34/53/104
s 8
f 47/65/98 46/64/97 34/53/105 42/60/106
s 7
f 48/66/96 47/65/95 42/60/107 41/59/108
s 6
f 49/67/94 48/66/93 41/59/109 40/58/110
s 5
f 50/68/92 49/67/91 40/58/111 39/57/112
s 4
f 43/61/90 50/68/89 39/57/113 38/56/114
g default
v 2.757456 18.776499 0.000000
v 2.120331 18.981442 -2.059828
v 0.452306 19.517992 -3.332865
v -1.609482 20.181205 -3.332865
v -3.277506 20.717756 -2.059830
v -3.914631 20.922698 0.000000
v -3.277506 20.717756 2.059829
v -1.609482 20.181205 3.332866
v 0.452305 19.517992 3.332866
v 2.120331 18.981442 2.059830
v 7.558436 11.166652 -0.000000
v 5.798846 11.334818 -5.440164
v 1.192153 11.775082 -8.802357
v -4.502022 12.319278 -8.802357
v -9.108716 12.759543 -5.440167
v -10.868306 12.927708 -0.000001
v -9.108716 12.759543 5.440164
v -4.502023 12.319278 8.802357
v 1.192153 11.775082 8.802358
v 5.798847 11.334818 5.440167
vt 0.000000 0.500000
vt 0.100000 0.500000
vt 0.200000 0.500000
vt 0.300000 0.500000
vt 0.400000 0.500000
vt 0.500000 0.500000
vt 0.600000 0.500000
vt 0.700000 0.500000
vt 0.800000 0.500000
vt 0.900000 0.500000
vt 1.000000 0.500000
vt 0.000000 0.250000
vt 0.100000 0.250000
vt 0.200000 0.250000
vt 0.300000 0.250000
vt 0.400000 0.250000
vt 0.500000 0.250000
vt 0.600000 0.250000
vt 0.700000 0.250000
vt 0.800000 0.250000
vt 0.900000 0.250000
vt 1.000000 0.250000
vn 0.825494 0.511616 -0.238345
vn 0.825494 0.511616 -0.238345
vn 0.825494 0.511616 -0.238345
vn 0.825494 0.511616 -0.238345
vn 0.556105 0.528512 -0.641423
vn 0.556105 0.528512 -0.641423
vn 0.556105 0.528512 -0.641423
vn 0.556105 0.528512 -0.641423
vn 0.087746 0.563653 -0.821338
vn 0.087747 0.563653 -0.821338
vn 0.087747 0.563653 -0.821338
vn 0.087747 0.563653 -0.821338
vn -0.409006 0.606800 -0.681548
vn -0.409006 0.606800 -0.681548
vn -0.409006 0.606800 -0.681548
vn -0.409006 0.606800 -0.681548
vn -0.724811 0.636652 -0.263294
vn -0.724810 0.636652 -0.263294
vn -0.724810 0.636652 -0.263294
vn -0.724811 0.636652 -0.263294
vn -0.724810 0.636652 0.263294
vn -0.724810 0.636652 0.263294
vn -0.724810 0.636652 0.263294
vn -0.724810 0.636652 0.263294
vn -0.409007 0.606800 0.681548
vn -0.409007 0.606800 0.681548
vn -0.409007 0.606800 0.681548
vn -0.409007 0.606800 0.681548
vn 0.087747 0.563653 0.821338
vn 0.087747 0.563653 0.821338
vn 0.087747 0.563653 0.821338
vn 0.087747 0.563653 0.821338
vn 0.556104 0.528512 0.641423
vn 0.556104 0.528512 0.641423
vn 0.556104 0.528512 0.641423
vn 0.556104 0.528512 0.641423
vn 0.825494 0.511616 0.238345
vn 0.825494 0.511616 0.238345
vn 0.825494 0.511616 0.238345
vn 0.825494 0.511616 0.238345
s off
g pPipe1
usemtl initialShadingGroup
f 52/70/115 51/69/116 61/80/117 62/81/118
f 53/71/119 52/70/120 62/81/121 63/82/122
f 54/72/123 53/71/124 63/82/125 64/83/126
f 55/73/127 54/72/128 64/83/129 65/84/130
f 56/74/131 55/73/132 65/84/133 66/85/134
f 57/75/135 56/74/136 66/85/137 67/86/138
f 58/76/139 57/75/140 67/86/141 68/87/142
f 59/77/143 58/76/144 68/87/145 69/88/146
f 60/78/147 59/77/148 69/88/149 70/89/150
f 51/79/151 60/78/152 70/89/153 61/90/154
g default
v 3.672836 24.080809 0.000000
v 3.233089 24.355243 -1.595341
v 2.081805 25.073724 -2.581311
v 0.658746 25.961814 -2.581311
v -0.492536 26.680295 -1.595342
v -0.932286 26.954729 0.000000
v -0.492536 26.680295 1.595342
v 0.658746 25.961814 2.581312
v 2.081805 25.073724 2.581312
v 3.233089 24.355243 1.595343
v 5.704049 16.655382 -0.000000
v 4.298614 16.934442 -4.409949
v 0.619116 17.665034 -7.135436
v -3.928986 18.568094 -7.135436
v -7.608484 19.298687 -4.409951
v -9.013919 19.577746 -0.000000
v -7.608484 19.298687 4.409949
v -3.928986 18.568094 7.135436
v 0.619116 17.665034 7.135436
v 4.298615 16.934442 4.409951
vt 0.000000 0.500000
vt 0.100000 0.500000
vt 0.200000 0.500000
vt 0.300000 0.500000
vt 0.400000 0.500000
vt 0.500000 0.500000
vt 0.600000 0.500000
vt 0.700000 0.500000
vt 0.800000 0.500000
vt 0.900000 0.500000
vt 1.000000 0.500000
vt 0.000000 0.250000
vt 0.100000 0.250000
vt 0.200000 0.250000
vt 0.300000 0.250000
vt 0.400000 0.250000
vt 0.500000 0.250000
vt 0.600000 0.250000
vt 0.700000 0.250000
vt 0.800000 0.250000
vt 0.900000 0.250000
vt 1.000000 0.250000
vn 0.932944 0.244671 -0.264105
vn 0.932944 0.244671 -0.264105
vn 0.932944 0.244671 -0.264105
vn 0.932944 0.244671 -0.264105
vn 0.635372 0.329909 -0.698185
vn 0.635372 0.329909 -0.698185
vn 0.635372 0.329909 -0.698185
vn 0.635372 0.329909 -0.698185
vn 0.142704 0.475731 -0.867937
vn 0.142704 0.475731 -0.867937
vn 0.142704 0.475731 -0.867937
vn 0.142704 0.475731 -0.867937
vn -0.349119 0.624826 -0.698361
vn -0.349119 0.624826 -0.698361
vn -0.349119 0.624826 -0.698361
vn -0.349119 0.624826 -0.698361
vn -0.646193 0.715862 -0.264529
vn -0.646193 0.715862 -0.264529
vn -0.646193 0.715862 -0.264529
vn -0.646193 0.715862 -0.264529
vn -0.646193 0.715862 0.264529
vn -0.646193 0.715862 0.264529
vn -0.646193 0.715862 0.264529
vn -0.646193 0.715862 0.264529
vn -0.349119 0.624826 0.698361
vn -0.349119 0.624826 0.698361
vn -0.349119 0.624826 0.698361
vn -0.349119 0.624826 0.698361
vn 0.142704 0.475731 0.867937
vn 0.142703 0.475732 0.867937
vn 0.142704 0.475731 0.867937
vn 0.142703 0.475731 0.867937
vn 0.635372 0.329910 0.698185
vn 0.635372 0.329910 0.698185
vn 0.635372 0.329910 0.698185
vn 0.635372 0.329910 0.698185
vn 0.932944 0.244671 0.264105
vn 0.932944 0.244671 0.264105
vn 0.932944 0.244671 0.264105
vn 0.932944 0.244671 0.264105
s off
g pPipe2
usemtl initialShadingGroup
f 72/92/155 71/91/156 81/102/157 82/103/158
f 73/93/159 72/92/160 82/103/161 83/104/162
f 74/94/163 73/93/164 83/104/165 84/105/166
f 75/95/167 74/94/168 84/105/169 85/106/170
f 76/96/171 75/95/172 85/106/173 86/107/174
f 77/97/175 76/96/176 86/107/177 87/108/178
f 78/98/179 77/97/180 87/108/181 88/109/182
f 79/99/183 78/98/184 88/109/185 89/110/186
f 80/100/187 79/99/188 89/110/189 90/111/190
f 71/101/191 80/100/192 90/111/193 81/112/194
g default
v 5.777579 30.229896 0.000000
v 5.517459 30.392229 -0.943678
v 4.836451 30.817226 -1.526900
v 3.994680 31.342551 -1.526900
v 3.313673 31.767547 -0.943679
v 3.053550 31.929880 0.000000
v 3.313672 31.767547 0.943678
v 3.994680 31.342551 1.526900
v 4.836450 30.817226 1.526900
v 5.517459 30.392229 0.943679
v 5.280452 22.854283 0.000000
v 4.232886 23.062285 -3.287036
v 1.490304 23.606845 -5.318527
v -1.899706 24.279958 -5.318527
v -4.642288 24.824518 -3.287038
v -5.689854 25.032521 -0.000000
v -4.642288 24.824518 3.287036
v -1.899707 24.279958 5.318527
v 1.490304 23.606845 5.318529
v 4.232886 23.062285 3.287038
vt 0.000000 0.500000
vt 0.100000 0.500000
vt 0.200000 0.500000
vt 0.300000 0.500000
vt 0.400000 0.500000
vt 0.500000 0.500000
vt 0.600000 0.500000
vt 0.700000 0.500000
vt 0.800000 0.500000
vt 0.900000 0.500000
vt 1.000000 0.500000
vt 0.000000 0.250000
vt 0.100000 0.250000
vt 0.200000 0.250000
vt 0.300000 0.250000
vt 0.400000 0.250000
vt 0.500000 0.250000
vt 0.600000 0.250000
vt 0.700000 0.250000
vt 0.800000 0.250000
vt 0.900000 0.250000
vt 1.000000 0.250000
vn 0.951542 -0.067478 -0.300023
vn 0.951543 -0.067478 -0.300023
vn 0.951543 -0.067478 -0.300023
vn 0.951543 -0.067478 -0.300023
vn 0.624450 0.126342 -0.770778
vn 0.624450 0.126342 -0.770779
vn 0.624450 0.126342 -0.770778
vn 0.624450 0.126343 -0.770779
vn 0.115224 0.406864 -0.906193
vn 0.115224 0.406864 -0.906193
vn 0.115224 0.406864 -0.906193
vn 0.115224 0.406864 -0.906193
vn -0.343314 0.640441 -0.687002
vn -0.343314 0.640441 -0.687002
vn -0.343314 0.640441 -0.687002
vn -0.343314 0.640441 -0.687002
vn -0.596542 0.762285 -0.251115
vn -0.596542 0.762285 -0.251114
vn -0.596542 0.762285 -0.251114
vn -0.596542 0.762285 -0.251115
vn -0.596542 0.762285 0.251115
vn -0.596542 0.762285 0.251115
vn -0.596542 0.762285 0.251115
vn -0.596542 0.762285 0.251115
vn -0.343315 0.640441 0.687001
vn -0.343315 0.640441 0.687001
vn -0.343315 0.640441 0.687001
vn -0.343315 0.640441 0.687001
vn 0.115223 0.406864 0.906192
vn 0.115223 0.406864 0.906193
vn 0.115223 0.406864 0.906193
vn 0.115223 0.406864 0.906193
vn 0.624450 0.126343 0.770779
vn 0.624450 0.126343 0.770779
vn 0.624450 0.126343 0.770779
vn 0.624450 0.126343 0.770779
vn 0.951543 -0.067478 0.300022
vn 0.951543 -0.067478 0.300022
vn 0.951543 -0.067478 0.300022
vn 0.951543 -0.067478 0.300022
s off
g pPipe3
usemtl initialShadingGroup
f 92/114/195 91/113/196 101/124/197 102/125/198
f 93/115/199 92/114/200 102/125/201 103/126/202
f 94/116/203 93/115/204 103/126/205 104/127/206
f 95/117/207 94/116/208 104/127/209 105/128/210
f 96/118/211 95/117/212 105/128/213 106/129/214
f 97/119/215 96/118/216 106/129/217 107/130/218
f 98/120/219 97/119/220 107/130/221 108/131/222
f 99/121/223 98/120/224 108/131/225 109/132/226
f 100/122/227 99/121/228 109/132/229 110/133/230
f 91/123/231 100/122/232 110/133/233 101/134/234
g default
v 9.516851 38.447953 0.000000
v 9.426611 38.493700 -0.311379
v 9.190358 38.613465 -0.503822
v 8.898336 38.761505 -0.503822
v 8.662086 38.881272 -0.311380
v 8.571845 38.927019 0.000000
v 8.662085 38.881272 0.311380
v 8.898336 38.761505 0.503822
v 9.190358 38.613465 0.503822
v 9.426611 38.493700 0.311380
v 6.956494 27.760117 -0.000000
v 6.241791 28.078182 -2.407632
v 4.370662 28.910895 -3.895624
v 2.057825 29.940182 -3.895624
v 0.186696 30.772895 -2.407633
v -0.528007 31.090960 -0.000000
v 0.186696 30.772895 2.407632
v 2.057824 29.940182 3.895624
v 4.370662 28.910895 3.895624
v 6.241791 28.078183 2.407633
vt 0.000000 0.500000
vt 0.100000 0.500000
vt 0.200000 0.500000
vt 0.300000 0.500000
vt 0.400000 0.500000
vt 0.500000 0.500000
vt 0.600000 0.500000
vt 0.700000 0.500000
vt 0.800000 0.500000
vt 0.900000 0.500000
vt 1.000000 0.500000
vt 0.000000 0.250000
vt 0.100000 0.250000
vt 0.200000 0.250000
vt 0.300000 0.250000
vt 0.400000 0.250000
vt 0.500000 0.250000
vt 0.600000 0.250000
vt 0.700000 0.250000
vt 0.800000 0.250000
vt 0.900000 0.250000
vt 1.000000 0.250000
vn 0.926448 -0.222021 -0.303975
vn 0.926448 -0.222021 -0.303975
vn 0.926448 -0.222021 -0.303975
vn 0.926448 -0.222021 -0.303975
vn 0.614940 -0.029706 -0.788014
vn 0.614940 -0.029706 -0.788014
vn 0.614940 -0.029706 -0.788014
vn 0.614940 -0.029706 -0.788014
vn 0.122978 0.272091 -0.954381
vn 0.122978 0.272091 -0.954381
vn 0.122978 0.272091 -0.954381
vn 0.122978 0.272091 -0.954381
vn -0.347824 0.558730 -0.752887
vn -0.347824 0.558730 -0.752887
vn -0.347824 0.558730 -0.752887
vn -0.347824 0.558730 -0.752887
vn -0.625828 0.726985 -0.282545
vn -0.625828 0.726985 -0.282545
vn -0.625828 0.726985 -0.282545
vn -0.625828 0.726985 -0.282545
vn -0.625828 0.726985 0.282545
vn -0.625828 0.726985 0.282545
vn -0.625828 0.726985 0.282545
vn -0.625828 0.726985 0.282545
vn -0.347825 0.558730 0.752887
vn -0.347825 0.558730 0.752887
vn -0.347825 0.558730 0.752887
vn -0.347825 0.558730 0.752887
vn 0.122978 0.272091 0.954381
vn 0.122978 0.272091 0.954381
vn 0.122978 0.272091 0.954381
vn 0.122978 0.272091 0.954381
vn 0.614939 -0.029706 0.788015
vn 0.614939 -0.029706 0.788015
vn 0.614939 -0.029706 0.788015
vn 0.614939 -0.029706 0.788015
vn 0.926448 -0.222022 0.303975
vn 0.926448 -0.222022 0.303975
vn 0.926448 -0.222022 0.303975
vn 0.926448 -0.222022 0.303975
s off
g pPipe4
usemtl initialShadingGroup
f 112/136/235 111/135/236 121/146/237 122/147/238
f 113/137/239 112/136/240 122/147/241 123/148/242
f 114/138/243 113/137/244 123/148/245 124/149/246
f 115/139/247 114/138/248 124/149/249 125/150/250
f 116/140/251 115/139/252 125/150/253 126/151/254
f 117/141/255 116/140/256 126/151/257 127/152/258
f 118/142/259 117/141/260 127/152/261 128/153/262
f 119/143/263 118/142/264 128/153/265 129/154/266
f 120/144/267 119/143/268 129/154/269 130/155/270
f 111/145/271 120/144/272 130/155/273 121/156/274
g default
v 10.733290 42.328020 0.000000
v 10.672134 42.348658 -0.198643
v 10.512027 42.402683 -0.321410
v 10.314125 42.469462 -0.321410
v 10.154020 42.523486 -0.198643
v 10.092864 42.544124 0.000000
v 10.154020 42.523486 0.198643
v 10.314125 42.469463 0.321411
v 10.512027 42.402683 0.321411
v 10.672134 42.348658 0.198643
v 10.093539 35.346112 -0.000000
v 9.613233 35.481609 -1.535935
v 8.355767 35.836351 -2.485191
v 6.801457 36.274834 -2.485191
v 5.543991 36.629576 -1.535936
v 5.063685 36.765073 -0.000000
v 5.543991 36.629576 1.535935
v 6.801457 36.274835 2.485191
v 8.355767 35.836351 2.485191
v 9.613233 35.481609 1.535936
vt 0.000000 0.500000
vt 0.100000 0.500000
vt 0.200000 0.500000
vt 0.300000 0.500000
vt 0.400000 0.500000
vt 0.500000 0.500000
vt 0.600000 0.500000
vt 0.700000 0.500000
vt 0.800000 0.500000
vt 0.900000 0.500000
vt 1.000000 0.500000
vt 0.000000 0.250000
vt 0.100000 0.250000
vt 0.200000 0.250000
vt 0.300000 0.250000
vt 0.400000 0.250000
vt 0.500000 0.250000
vt 0.600000 0.250000
vt 0.700000 0.250000
vt 0.800000 0.250000
vt 0.900000 0.250000
vt 1.000000 0.250000
vn 0.948698 -0.087010 -0.303976
vn 0.948698 -0.087010 -0.303976
vn 0.948698 -0.087010 -0.303976
vn 0.948698 -0.087010 -0.303976
vn 0.612852 0.058695 -0.788014
vn 0.612852 0.058695 -0.788014
vn 0.612852 0.058695 -0.788014
vn 0.612852 0.058695 -0.788014
vn 0.082730 0.286902 -0.954381
vn 0.082730 0.286902 -0.954381
vn 0.082730 0.286902 -0.954381
vn 0.082730 0.286902 -0.954381
vn -0.424279 0.503138 -0.752887
vn -0.424279 0.503138 -0.752887
vn -0.424279 0.503138 -0.752887
vn -0.424279 0.503138 -0.752887
vn -0.723519 0.629832 -0.282545
vn -0.723519 0.629832 -0.282545
vn -0.723519 0.629832 -0.282545
vn -0.723520 0.629832 -0.282545
vn -0.723519 0.629832 0.282545
vn -0.723519 0.629832 0.282545
vn -0.723519 0.629832 0.282545
vn -0.723519 0.629832 0.282545
vn -0.424280 0.503139 0.752886
vn -0.424280 0.503139 0.752886
vn -0.424280 0.503139 0.752886
vn -0.424280 0.503139 0.752886
vn 0.082730 0.286902 0.954381
vn 0.082730 0.286902 0.954381
vn 0.082730 0.286902 0.954381
vn 0.082730 0.286902 0.954381
vn 0.612852 0.058696 0.788015
vn 0.612852 0.058696 0.788015
vn 0.612852 0.058696 0.788015
vn 0.612852 0.058696 0.788015
vn 0.948698 -0.087011 0.303975
vn 0.948698 -0.087010 0.303975
vn 0.948698 -0.087010 0.303975
vn 0.948698 -0.087010 0.303975
s off
g pPipe5
usemtl initialShadingGroup
f 132/158/275 131/157/276 141/168/277 142/169/278
f 133/159/279 132/158/280 142/169/281 143/170/282
f 134/160/283 133/159/284 143/170/285 144/171/286
f 135/161/287 134/160/288 144/171/289 145/172/290
f 136/162/291 135/161/292 145/172/293 146/173/294
f 137/163/295 136/162/296 146/173/297 147/174/298
f 138/164/299 137/163/300 147/174/301 148/175/302
f 139/165/303 138/164/304 148/175/305 149/176/306
f 140/166/307 139/165/308 149/176/309 150/177/310
f 131/167/311 140/166/312 150/177/313 141/178/314
